<svg width="16" height="16" viewBox="0 0 16 16" fill="none" xmlns="http://www.w3.org/2000/svg">
<path d="M12.8 4H12V3.2C12 1.44 10.56 0 8.8 0H7.2C5.44 0 4 1.44 4 3.2V4H3.2C1.44 4 0 5.44 0 7.2V12.8C0 14.56 1.44 16 3.2 16H12.8C14.56 16 16 14.56 16 12.8V7.2C16 5.44 14.56 4 12.8 4ZM6.4 3.2C6.4 2.72 6.72 2.4 7.2 2.4H8.8C9.28 2.4 9.6 2.72 9.6 3.2V4H6.4V3.2ZM8.8 13.6H7.2C6.72 13.6 6.4 13.28 6.4 12.8C6.4 12.32 6.72 12 7.2 12H8.8C9.28 12 9.6 12.32 9.6 12.8C9.6 13.28 9.28 13.6 8.8 13.6Z" fill="white"/>
</svg>
