<svg width="16" height="16" viewBox="0 0 16 16" fill="none" xmlns="http://www.w3.org/2000/svg">
<path d="M12.8 1.6C12.8 0.719999 12.08 -9.53674e-07 11.2 -9.53674e-07C10.32 -9.53674e-07 9.6 0.719999 9.6 1.6H6.4C6.4 0.719999 5.68 -9.53674e-07 4.8 -9.53674e-07C3.92 -9.53674e-07 3.2 0.719999 3.2 1.6C1.44 1.6 0 3.04 0 4.8V12.8C0 14.56 1.44 16 3.2 16H12.8C14.56 16 16 14.56 16 12.8V4.8C16 3.04 14.56 1.6 12.8 1.6ZM14.4 13.6C14.4 14.08 14.08 14.4 13.6 14.4H2.4C1.92 14.4 1.6 14.08 1.6 13.6V7.2C1.6 6.72 1.92 6.4 2.4 6.4H13.6C14.08 6.4 14.4 6.72 14.4 7.2V13.6Z" fill="white"/>
<path d="M8.79998 8H7.19998C6.31998 8 5.59998 8.72 5.59998 9.6V11.2C5.59998 12.08 6.31998 12.8 7.19998 12.8H8.79998C9.67998 12.8 10.4 12.08 10.4 11.2V9.6C10.4 8.72 9.67998 8 8.79998 8Z" fill="white"/>
</svg>
