<svg width="16" height="16" viewBox="0 0 16 16" fill="none" xmlns="http://www.w3.org/2000/svg">
<path d="M12 10C11.4478 10 11 10.4478 11 11V14H2V5H5C5.55219 5 6 4.5525 6 4C6 3.4475 5.55219 3 5 3H2C0.895313 3 0 3.89531 0 5V14C0 15.1044 0.895313 16 2 16H11C12.1047 16 13 15.1044 13 14V11C13 10.4469 12.5531 10 12 10ZM15.7063 0.292719C15.525 0.111812 15.275 0 15 0H10C9.44781 0 9.02812 0.4475 9.02812 0.971875C9.02812 1.52406 9.47563 1.94375 10.0278 1.94375H12.6138L5.58437 9.08438C5.19375 9.475 5.19375 10.1081 5.58437 10.4987C5.975 10.8906 6.60938 10.8906 7 10.5L14 3.4125V6C14 6.55219 14.4478 6.97188 14.9719 6.97188C15.4959 6.97188 16 6.55312 16 6V0.971875C16 0.72375 15.8875 0.47375 15.7063 0.292719Z" fill="white"/>
</svg>
