<svg width="17" height="17" viewBox="0 0 17 17" fill="none" xmlns="http://www.w3.org/2000/svg">
<path d="M5.68548 13.6884C5.68548 13.7587 5.60666 13.8149 5.50727 13.8149C5.39418 13.8255 5.31536 13.7692 5.31536 13.6884C5.31536 13.6181 5.39418 13.5618 5.49356 13.5618C5.59637 13.5513 5.68548 13.6075 5.68548 13.6884ZM4.61967 13.5302C4.59568 13.6005 4.66422 13.6813 4.76703 13.7024C4.85613 13.7376 4.95894 13.7024 4.97951 13.6321C5.00007 13.5618 4.93495 13.481 4.83214 13.4493C4.74304 13.4247 4.64365 13.4599 4.61967 13.5302ZM6.13442 13.4704C6.03504 13.495 5.9665 13.5618 5.97678 13.6427C5.98706 13.713 6.07616 13.7587 6.17897 13.7341C6.27836 13.7095 6.3469 13.6427 6.33662 13.5724C6.32634 13.5056 6.23381 13.4599 6.13442 13.4704ZM8.38942 0C3.6361 0 0 3.70156 0 8.5772C0 12.4756 2.39208 15.8116 5.80885 16.9857C6.24751 17.0665 6.40173 16.7888 6.40173 16.5603C6.40173 16.3424 6.39145 15.1402 6.39145 14.402C6.39145 14.402 3.99251 14.9293 3.48874 13.3544C3.48874 13.3544 3.09805 12.3315 2.53602 12.0678C2.53602 12.0678 1.75122 11.516 2.59085 11.5265C2.59085 11.5265 3.44419 11.5968 3.91369 12.4334C4.66422 13.7903 5.92195 13.4001 6.41201 13.1681C6.49084 12.6057 6.71359 12.2155 6.96034 11.9835C5.04462 11.7655 3.11176 11.4808 3.11176 8.09913C3.11176 7.13244 3.37222 6.64733 3.92055 6.02865C3.83144 5.80016 3.54014 4.85807 4.00965 3.6418C4.7259 3.41331 6.37432 4.59091 6.37432 4.59091C7.05973 4.39406 7.79654 4.29212 8.5265 4.29212C9.25647 4.29212 9.99328 4.39406 10.6787 4.59091C10.6787 4.59091 12.3271 3.40979 13.0434 3.6418C13.5129 4.86159 13.2216 5.80016 13.1325 6.02865C13.6808 6.65085 14.0166 7.13595 14.0166 8.09913C14.0166 11.4913 11.9981 11.762 10.0824 11.9835C10.3977 12.2612 10.665 12.7885 10.665 13.6146C10.665 14.7992 10.6547 16.2651 10.6547 16.5533C10.6547 16.7818 10.8123 17.0595 11.2476 16.9786C14.6746 15.8116 16.9982 12.4756 16.9982 8.5772C16.9982 3.70156 13.1427 0 8.38942 0ZM3.33109 12.1241C3.28654 12.1592 3.29682 12.2401 3.35508 12.3069C3.40992 12.3631 3.48874 12.3877 3.53329 12.342C3.57784 12.3069 3.56756 12.226 3.5093 12.1592C3.45447 12.103 3.37565 12.0784 3.33109 12.1241ZM2.96097 11.8394C2.93698 11.8851 2.97125 11.9413 3.03979 11.9764C3.09463 12.0116 3.16317 12.0011 3.18716 11.9518C3.21115 11.9061 3.17688 11.8499 3.10834 11.8147C3.03979 11.7937 2.98496 11.8042 2.96097 11.8394ZM4.07134 13.0908C4.0165 13.1365 4.03707 13.2419 4.11589 13.3087C4.19471 13.3896 4.2941 13.4001 4.33865 13.3439C4.3832 13.2982 4.36264 13.1927 4.2941 13.1259C4.2187 13.0451 4.11589 13.0345 4.07134 13.0908ZM3.68065 12.574C3.62582 12.6092 3.62582 12.7006 3.68065 12.7814C3.73549 12.8623 3.82802 12.8974 3.87257 12.8623C3.9274 12.8166 3.9274 12.7252 3.87257 12.6443C3.82459 12.5635 3.73549 12.5283 3.68065 12.574Z" fill="white"/>
</svg>
