<svg width="12" height="16" viewBox="0 0 12 16" fill="none" xmlns="http://www.w3.org/2000/svg">
<path d="M5.98753 0C2.66112 0 0 2.66112 0 5.98753C0 10.1123 2.26195 13.7713 5.65489 15.9002C5.85447 16.0333 6.12058 16.0333 6.3867 15.9002C9.7131 13.7048 11.9751 10.1123 11.9751 5.98753C11.9751 2.66112 9.31393 0 5.98753 0ZM5.98753 8.64865C4.52391 8.64865 3.3264 7.45114 3.3264 5.98753C3.3264 4.52391 4.52391 3.3264 5.98753 3.3264C7.45114 3.3264 8.64865 4.52391 8.64865 5.98753C8.64865 7.45114 7.45114 8.64865 5.98753 8.64865Z" fill="white"/>
</svg>
