<svg width="71" height="71" viewBox="0 0 71 71" fill="none" xmlns="http://www.w3.org/2000/svg">
<path d="M35.1562 70.3125C54.5725 70.3125 70.3125 54.5725 70.3125 35.1562C70.3125 15.74 54.5725 0 35.1562 0C15.74 0 0 15.74 0 35.1562C0 54.5725 15.74 70.3125 35.1562 70.3125Z" fill="#969BAB"/>
<path d="M32.291 42.2988C32.248 42.0332 32.2266 41.7773 32.2266 41.5312C32.2266 41.2852 32.2266 41.0273 32.2266 40.7578C32.1947 39.4614 32.4321 38.1726 32.9238 36.9727C33.3531 35.9601 33.947 35.0255 34.6816 34.207C35.3852 33.4429 36.1712 32.759 37.0254 32.168C37.8535 31.5859 38.6348 31 39.3691 30.4102C40.0244 29.8846 40.6145 29.2827 41.127 28.6172C41.6002 27.9775 41.8457 27.1978 41.8242 26.4023C41.8367 25.8539 41.7113 25.3112 41.4595 24.8239C41.2076 24.3365 40.8374 23.9203 40.3828 23.6133C39.418 22.918 37.9238 22.5703 35.9004 22.5703C34.9368 22.5593 33.9783 22.7098 33.0645 23.0156C32.2364 23.2989 31.4361 23.6579 30.6738 24.0879C29.9951 24.4691 29.3467 24.902 28.7344 25.3828C28.168 25.832 27.6699 26.2051 27.2402 26.502L24.0234 22.3359C24.8305 21.464 25.7416 20.6946 26.7363 20.0449C27.7445 19.3842 28.8211 18.8341 29.9473 18.4043C31.0767 17.9726 32.2438 17.6469 33.4336 17.4316C34.5936 17.2204 35.7701 17.1125 36.9492 17.1094C40.5664 17.1094 43.3789 17.8652 45.3867 19.377C46.3498 20.0693 47.1282 20.9876 47.6533 22.0511C48.1784 23.1147 48.4343 24.291 48.3984 25.4766C48.4461 26.9182 48.1823 28.3532 47.625 29.6836C47.1613 30.7375 46.5101 31.6984 45.7031 32.5195C44.911 33.2861 44.0455 33.973 43.1191 34.5703C42.2304 35.1498 41.3826 35.79 40.582 36.4863C39.8048 37.1574 39.1402 37.9487 38.6133 38.8301C38.0439 39.8822 37.7687 41.0683 37.8164 42.2637L32.291 42.2988ZM31.2949 49.3711C31.2694 48.8586 31.354 48.3466 31.543 47.8695C31.732 47.3925 32.021 46.9614 32.3906 46.6055C33.1838 45.9021 34.2203 45.5362 35.2793 45.5859C36.3699 45.5256 37.4413 45.8911 38.2676 46.6055C38.6369 46.9617 38.9257 47.3927 39.1147 47.8697C39.3036 48.3467 39.3884 48.8586 39.3633 49.3711C39.3852 49.8849 39.299 50.3977 39.1103 50.8761C38.9215 51.3545 38.6344 51.788 38.2676 52.1484C37.4485 52.8773 36.3741 53.2523 35.2793 53.1914C34.7529 53.216 34.2268 53.1366 33.7311 52.9576C33.2354 52.7786 32.7799 52.5037 32.3906 52.1484C32.0248 51.7875 31.7388 51.3538 31.5511 50.8754C31.3633 50.397 31.2781 49.8845 31.3008 49.3711H31.2949Z" fill="white"/>
</svg>
