<svg width="71" height="71" viewBox="0 0 71 71" fill="none" xmlns="http://www.w3.org/2000/svg">
<path d="M35.5 70.6562C54.9163 70.6562 70.6562 54.9163 70.6562 35.5C70.6562 16.0837 54.9163 0.34375 35.5 0.34375C16.0837 0.34375 0.34375 16.0837 0.34375 35.5C0.34375 54.9163 16.0837 70.6562 35.5 70.6562Z" fill="#D6B1FF"/>
<path d="M32.6348 42.6426C32.5918 42.377 32.5703 42.1211 32.5703 41.875C32.5703 41.6289 32.5703 41.3711 32.5703 41.1016C32.5385 39.8052 32.7759 38.5163 33.2676 37.3164C33.6968 36.3038 34.2908 35.3693 35.0254 34.5508C35.7289 33.7866 36.515 33.1028 37.3691 32.5117C38.1973 31.9297 38.9785 31.3438 39.7129 30.7539C40.3681 30.2284 40.9583 29.6265 41.4707 28.9609C41.944 28.3212 42.1894 27.5415 42.168 26.7461C42.1805 26.1977 42.0551 25.6549 41.8032 25.1676C41.5514 24.6803 41.1812 24.264 40.7266 23.957C39.7617 23.2617 38.2676 22.9141 36.2441 22.9141C35.2806 22.903 34.322 23.0536 33.4082 23.3594C32.5801 23.6427 31.7799 24.0016 31.0176 24.4316C30.3388 24.8129 29.6904 25.2458 29.0781 25.7266C28.5117 26.1758 28.0137 26.5488 27.584 26.8457L24.3672 22.6797C25.1742 21.8078 26.0853 21.0383 27.0801 20.3887C28.0883 19.7279 29.1648 19.1779 30.291 18.748C31.4204 18.3163 32.5876 17.9907 33.7773 17.7754C34.9374 17.5641 36.1139 17.4563 37.293 17.4531C40.9102 17.4531 43.7227 18.209 45.7305 19.7207C46.6936 20.413 47.4719 21.3313 47.9971 22.3949C48.5222 23.4584 48.7781 24.6347 48.7422 25.8203C48.7898 27.262 48.526 28.6969 47.9687 30.0273C47.5051 31.0812 46.8539 32.0421 46.0469 32.8633C45.2548 33.6298 44.3893 34.3167 43.4629 34.9141C42.5741 35.4936 41.7264 36.1338 40.9258 36.8301C40.1486 37.5012 39.4839 38.2925 38.957 39.1738C38.3877 40.226 38.1124 41.4121 38.1602 42.6074L32.6348 42.6426ZM31.6387 49.7148C31.6132 49.2023 31.6977 48.6903 31.8868 48.2133C32.0758 47.7362 32.3648 47.3052 32.7344 46.9492C33.5276 46.2458 34.5641 45.88 35.623 45.9297C36.7136 45.8693 37.7851 46.2348 38.6113 46.9492C38.9806 47.3054 39.2694 47.7365 39.4584 48.2135C39.6474 48.6905 39.7322 49.2024 39.707 49.7148C39.729 50.2287 39.6428 50.7414 39.454 51.2198C39.2653 51.6983 38.9782 52.1317 38.6113 52.4922C37.7922 53.2211 36.7178 53.5961 35.623 53.5352C35.0966 53.5598 34.5705 53.4803 34.0748 53.3013C33.5792 53.1224 33.1237 52.8474 32.7344 52.4922C32.3686 52.1312 32.0826 51.6975 31.8948 51.2191C31.7071 50.7407 31.6218 50.2283 31.6445 49.7148H31.6387Z" fill="white"/>
</svg>
