<svg width="31" height="31" viewBox="0 0 31 31" fill="none" xmlns="http://www.w3.org/2000/svg">
<path fill-rule="evenodd" clip-rule="evenodd" d="M15.5 0.484375C15.7713 0.4842 16.0372 0.559964 16.2677 0.703093C16.4981 0.846223 16.6839 1.051 16.804 1.29425L20.4503 8.68581L28.6072 9.87156C28.8755 9.91052 29.1275 10.0238 29.3348 10.1985C29.5421 10.3731 29.6964 10.6023 29.7802 10.8601C29.8641 11.1179 29.8741 11.394 29.8093 11.6573C29.7444 11.9205 29.6072 12.1603 29.4132 12.3496L23.5116 18.104L24.9047 26.226C24.9506 26.4932 24.9208 26.768 24.8188 27.0192C24.7167 27.2704 24.5464 27.4881 24.327 27.6475C24.1077 27.807 23.8481 27.9019 23.5777 27.9215C23.3072 27.9411 23.0367 27.8847 22.7967 27.7586L15.5 23.9223L8.2034 27.7586C7.96352 27.8845 7.6932 27.9409 7.42296 27.9213C7.15273 27.9018 6.89334 27.807 6.6741 27.6478C6.45486 27.4887 6.28449 27.2713 6.18223 27.0204C6.07997 26.7695 6.0499 26.495 6.0954 26.2279L7.4904 18.1021L1.5849 12.3496C1.39031 12.1604 1.25262 11.9204 1.18743 11.6569C1.12224 11.3934 1.13215 11.1169 1.21605 10.8588C1.29995 10.6006 1.45448 10.3711 1.66212 10.1963C1.86977 10.0215 2.12223 9.90831 2.3909 9.86962L10.5478 8.68581L14.1961 1.29425C14.3162 1.051 14.502 0.846223 14.7324 0.703093C14.9628 0.559964 15.2288 0.4842 15.5 0.484375V0.484375ZM15.5 5.22156L12.8166 10.6562C12.7124 10.8672 12.5585 11.0498 12.3681 11.1881C12.1778 11.3265 11.9567 11.4166 11.7238 11.4506L5.7234 12.3225L10.0634 16.554C10.2323 16.7184 10.3586 16.9215 10.4315 17.1456C10.5044 17.3697 10.5217 17.6082 10.4819 17.8405L9.4589 23.8157L14.8238 20.9948C15.0324 20.8851 15.2644 20.8278 15.5 20.8278C15.7356 20.8278 15.9677 20.8851 16.1762 20.9948L21.5431 23.8157L20.5162 17.8405C20.4764 17.6082 20.4937 17.3697 20.5666 17.1456C20.6395 16.9215 20.7659 16.7184 20.9347 16.554L25.2747 12.3244L19.2762 11.4526C19.0434 11.4185 18.8223 11.3285 18.6319 11.1901C18.4416 11.0517 18.2877 10.8692 18.1835 10.6582L15.5 5.21963V5.22156Z" fill="white"/>
</svg>
