<svg width="266" height="266" viewBox="0 0 266 266" fill="none" xmlns="http://www.w3.org/2000/svg">
<path d="M0 24C0 10.7452 10.7452 0 24 0H242C255.255 0 266 10.7452 266 24V242C266 255.255 255.255 266 242 266H24C10.7452 266 0 255.255 0 242V24Z" fill="url(#paint0_linear_1001_55)"/>
<g clip-path="url(#clip0_1001_55)">
<path d="M161.502 233.758H134.663H107.792C107.792 233.758 107.868 217.819 107.792 206.887C71.0282 214.803 60.7698 186.735 60.7698 186.735C54.0505 173.303 47.3376 166.584 47.3376 166.584C33.9053 158.605 47.3376 159.864 47.3376 159.864C60.7698 159.864 67.4891 173.297 67.4891 173.297C79.2777 193.316 100.254 190.092 107.792 186.729C107.792 180.01 110.733 169.858 114.511 166.577C85.172 163.271 60.7446 146.426 60.7446 112.842C60.7446 79.2584 67.4891 72.5392 74.2083 65.8199C72.8481 62.5138 67.2246 50.278 74.4099 32.2424C74.4099 32.2424 87.6091 32.2424 101.041 52.3939C107.698 45.7376 127.912 45.6747 134.631 45.6747C141.338 45.6747 161.553 45.7376 168.203 52.3939C181.647 32.2424 194.878 32.2424 194.878 32.2424C202.057 50.278 196.446 62.5138 195.08 65.8262C201.799 72.5455 208.512 79.2584 208.512 112.848C208.512 146.439 184.122 163.284 154.777 166.584C158.561 169.865 161.496 181.42 161.496 186.735V233.758H161.502Z" fill="white"/>
</g>
<defs>
<linearGradient id="paint0_linear_1001_55" x1="133" y1="0" x2="133" y2="266" gradientUnits="userSpaceOnUse">
<stop stop-color="#8C30F5"/>
<stop offset="1" stop-color="#2EC5CE"/>
</linearGradient>
<clipPath id="clip0_1001_55">
<rect width="201.515" height="201.515" fill="white" transform="translate(24.1819 32.2424)"/>
</clipPath>
</defs>
</svg>
