<svg width="137" height="28" viewBox="0 0 137 28" fill="none" xmlns="http://www.w3.org/2000/svg">
<path d="M48.326 14.4546C48.326 10.1272 45.5902 7.73017 42.0746 7.73017C38.5462 7.73017 35.8296 10.1272 35.8296 14.4546C35.8296 18.7628 38.5462 21.179 42.0746 21.179C45.5902 21.179 48.326 18.782 48.326 14.4546ZM45.0917 14.4546C45.0917 17.0178 43.9667 18.4049 42.0746 18.4049C40.189 18.4049 39.0576 17.0178 39.0576 14.4546C39.0576 11.8914 40.189 10.5043 42.0746 10.5043C43.9667 10.5043 45.0917 11.8914 45.0917 14.4546Z" fill="white"/>
<path d="M54.7564 21.1854C57.5178 21.1854 59.2309 19.581 59.314 17.152H56.3928C56.2777 18.1939 55.6513 18.7628 54.7948 18.7628C53.6954 18.7628 52.9794 17.836 52.9794 16.091C52.9794 14.3587 53.7017 13.4319 54.7948 13.4319C55.6897 13.4319 56.2714 14.0391 56.3928 15.0427H59.314C59.2437 12.6265 57.4794 11.054 54.75 11.054C51.6627 11.054 49.7962 13.1123 49.7962 16.1229C49.7962 19.1208 51.6499 21.1854 54.7564 21.1854Z" fill="white"/>
<path d="M66.4555 11.1819H64.6849V8.8296H61.5592V11.1819H60.2616V13.483H61.5592V18.2579C61.54 20.2458 62.8312 21.243 65.0364 21.1407C65.7907 21.1023 66.334 20.9489 66.6345 20.8594L66.1614 18.603C66.0272 18.635 65.714 18.6989 65.4775 18.6989C64.9725 18.6989 64.6849 18.4944 64.6849 17.9127V13.483H66.4555V11.1819Z" fill="white"/>
<path d="M72.5279 21.1854C75.6153 21.1854 77.4881 19.1464 77.4881 16.1229C77.4881 13.0931 75.6153 11.054 72.5279 11.054C69.4406 11.054 67.5677 13.0931 67.5677 16.1229C67.5677 19.1464 69.4406 21.1854 72.5279 21.1854ZM72.5471 18.8268C71.3901 18.8268 70.7509 17.7273 70.7509 16.1037C70.7509 14.4738 71.3901 13.368 72.5471 13.368C73.6657 13.368 74.3049 14.4738 74.3049 16.1037C74.3049 17.7273 73.6657 18.8268 72.5471 18.8268Z" fill="white"/>
<path d="M79.0894 21.0001H82.2534V16.9347H84.4011C87.399 16.9347 89.2719 15.1577 89.2719 12.4411C89.2719 9.75006 87.4374 7.90915 84.497 7.90915H79.0894V21.0001ZM82.2534 14.4418V10.4596H83.8131C85.2321 10.4596 85.9928 11.2266 85.9928 12.4411C85.9928 13.6492 85.2321 14.4418 83.8131 14.4418H82.2534Z" fill="white"/>
<path d="M90.8315 21.0001H93.9573V15.6691C93.9636 14.5057 94.7754 13.7323 95.7598 13.7323C96.1369 13.7323 96.4374 13.8474 96.7122 13.9752L97.6327 11.4056C97.2556 11.1883 96.7761 11.0476 96.2584 11.0476C95.1845 11.0476 94.328 11.6741 93.97 12.9716H93.8678V11.1819H90.8315V21.0001Z" fill="white"/>
<path d="M102.727 21.1854C105.814 21.1854 107.687 19.1464 107.687 16.1229C107.687 13.0931 105.814 11.054 102.727 11.054C99.6398 11.054 97.7669 13.0931 97.7669 16.1229C97.7669 19.1464 99.6398 21.1854 102.727 21.1854ZM102.746 18.8268C101.589 18.8268 100.95 17.7273 100.95 16.1037C100.95 14.4738 101.589 13.368 102.746 13.368C103.865 13.368 104.504 14.4738 104.504 16.1037C104.504 17.7273 103.865 18.8268 102.746 18.8268Z" fill="white"/>
<path d="M114.869 11.1819H112.996V10.6322C112.996 10.0697 113.226 9.72449 113.955 9.72449C114.249 9.72449 114.607 9.78841 114.837 9.85872L115.335 7.57037C114.965 7.4681 114.115 7.29551 113.252 7.29551C111.251 7.29551 109.877 8.40773 109.877 10.6833V11.1819H108.553V13.483H109.877V21.0001H112.996V13.483H114.869V11.1819Z" fill="white"/>
<path d="M116.373 21.0001H119.498V11.1819H116.373V21.0001ZM117.939 10.0377C118.827 10.0377 119.543 9.36653 119.543 8.54196C119.543 7.71738 118.827 7.05261 117.939 7.05261C117.057 7.05261 116.334 7.71738 116.334 8.54196C116.334 9.36653 117.057 10.0377 117.939 10.0377Z" fill="white"/>
<path d="M121.488 7.90915V18.277C121.494 20.3097 122.555 21.1599 124.863 21.0576C125.617 21.0192 125.975 20.9106 126.256 20.8211L125.783 18.6158C125.687 18.6542 125.56 18.6734 125.31 18.6797C124.831 18.6797 124.62 18.4432 124.614 17.9319V7.90915H121.488Z" fill="white"/>
<path d="M131.755 21.1854C134.331 21.1854 136.025 19.939 136.383 18.0086L133.513 17.9255C133.27 18.5775 132.631 18.929 131.813 18.929C130.611 18.929 129.869 18.13 129.869 16.9283V16.8452H136.415V16.0654C136.415 12.831 134.446 11.054 131.659 11.054C128.693 11.054 126.788 13.0867 126.788 16.1293C126.788 19.2742 128.668 21.1854 131.755 21.1854ZM129.869 15.0299C129.914 14.0519 130.688 13.3104 131.723 13.3104C132.752 13.3104 133.494 14.0263 133.506 15.0299H129.869Z" fill="white"/>
<path d="M19.0803 28H15.3511H11.6174C11.6174 28 11.6279 25.7854 11.6174 24.2664C6.50919 25.3662 5.08381 21.4664 5.08381 21.4664C4.15019 19.6 3.21744 18.6664 3.21744 18.6664C1.35106 17.5577 3.21744 17.7327 3.21744 17.7327C5.08381 17.7327 6.01744 19.5991 6.01744 19.5991C7.65544 22.3807 10.5701 21.9328 11.6174 21.4655C11.6174 20.5319 12.0261 19.1214 12.5511 18.6655C8.47444 18.2061 5.08031 15.8655 5.08031 11.1991C5.08031 6.53275 6.01744 5.59912 6.95106 4.6655C6.76206 4.20612 5.98069 2.506 6.97906 0C6.97906 0 8.81306 0 10.6794 2.8C11.6043 1.87512 14.4131 1.86637 15.3467 1.86637C16.2786 1.86637 19.0873 1.87512 20.0113 2.8C21.8794 0 23.7178 0 23.7178 0C24.7153 2.506 23.9357 4.20613 23.7458 4.66638C24.6794 5.6 25.6122 6.53275 25.6122 11.2C25.6122 15.8673 22.2233 18.2079 18.1458 18.6664C18.6717 19.1222 19.0794 20.7279 19.0794 21.4664V28H19.0803Z" fill="url(#paint0_linear_552_273)"/>
<defs>
<linearGradient id="paint0_linear_552_273" x1="14.0001" y1="28" x2="14.0001" y2="0" gradientUnits="userSpaceOnUse">
<stop stop-color="#2EC5CE"/>
<stop offset="1" stop-color="#8C30F5"/>
</linearGradient>
</defs>
</svg>
