<svg width="444" height="91" viewBox="0 0 444 91" fill="none" xmlns="http://www.w3.org/2000/svg">
<path d="M157.06 46.9772C157.06 32.9131 148.168 25.1228 136.743 25.1228C125.275 25.1228 116.446 32.9131 116.446 46.9772C116.446 60.979 125.275 68.8316 136.743 68.8316C148.168 68.8316 157.06 61.0413 157.06 46.9772ZM146.548 46.9772C146.548 55.3077 142.892 59.8157 136.743 59.8157C130.614 59.8157 126.937 55.3077 126.937 46.9772C126.937 38.6468 130.614 34.1388 136.743 34.1388C142.892 34.1388 146.548 38.6468 146.548 46.9772Z" fill="black"/>
<path d="M177.959 68.8524C186.933 68.8524 192.5 63.6381 192.771 55.7439H183.277C182.903 59.1301 180.867 60.979 178.083 60.979C174.51 60.979 172.183 57.9668 172.183 52.2954C172.183 46.6656 174.531 43.6534 178.083 43.6534C180.992 43.6534 182.882 45.6269 183.277 48.8885H192.771C192.542 41.0358 186.808 35.9254 177.938 35.9254C167.904 35.9254 161.838 42.6147 161.838 52.3993C161.838 62.1424 167.862 68.8524 177.959 68.8524Z" fill="black"/>
<path d="M215.98 36.3409H210.226V28.696H200.067V36.3409H195.85V43.8196H200.067V59.3379C200.005 65.7986 204.201 69.0394 211.369 68.707C213.82 68.5824 215.586 68.0838 216.562 67.7929L215.025 60.4597C214.589 60.5635 213.571 60.7713 212.802 60.7713C211.161 60.7713 210.226 60.1065 210.226 58.2161V43.8196H215.98V36.3409Z" fill="black"/>
<path d="M235.716 68.8524C245.75 68.8524 251.837 62.2255 251.837 52.3993C251.837 42.5523 245.75 35.9254 235.716 35.9254C225.682 35.9254 219.595 42.5523 219.595 52.3993C219.595 62.2255 225.682 68.8524 235.716 68.8524ZM235.778 61.1868C232.018 61.1868 229.941 57.6136 229.941 52.337C229.941 47.0396 232.018 43.4456 235.778 43.4456C239.414 43.4456 241.491 47.0396 241.491 52.337C241.491 57.6136 239.414 61.1868 235.778 61.1868Z" fill="black"/>
<path d="M257.041 68.25H267.324V55.0376H274.304C284.047 55.0376 290.134 49.2624 290.134 40.4334C290.134 31.6875 284.172 25.7045 274.615 25.7045H257.041V68.25ZM267.324 46.9357V33.9934H272.393C277.004 33.9934 279.477 36.4863 279.477 40.4334C279.477 44.3597 277.004 46.9357 272.393 46.9357H267.324Z" fill="black"/>
<path d="M295.203 68.25H305.361V50.9243C305.382 47.1434 308.02 44.6298 311.219 44.6298C312.445 44.6298 313.422 45.0037 314.315 45.4192L317.306 37.068C316.081 36.3617 314.523 35.9046 312.84 35.9046C309.35 35.9046 306.566 37.9405 305.403 42.1576H305.07V36.3409H295.203V68.25Z" fill="black"/>
<path d="M333.863 68.8524C343.897 68.8524 349.984 62.2255 349.984 52.3993C349.984 42.5523 343.897 35.9254 333.863 35.9254C323.829 35.9254 317.743 42.5523 317.743 52.3993C317.743 62.2255 323.829 68.8524 333.863 68.8524ZM333.926 61.1868C330.166 61.1868 328.088 57.6136 328.088 52.337C328.088 47.0396 330.166 43.4456 333.926 43.4456C337.561 43.4456 339.639 47.0396 339.639 52.337C339.639 57.6136 337.561 61.1868 333.926 61.1868Z" fill="black"/>
<path d="M373.324 36.3409H367.237V34.5543C367.237 32.7262 367.985 31.6044 370.353 31.6044C371.309 31.6044 372.472 31.8121 373.22 32.0406L374.84 24.6035C373.635 24.2711 370.872 23.7102 368.068 23.7102C361.566 23.7102 357.099 27.3249 357.099 34.7205V36.3409H352.799V43.8196H357.099V68.25H367.237V43.8196H373.324V36.3409Z" fill="black"/>
<path d="M378.211 68.25H388.369V36.3409H378.211V68.25ZM383.301 32.6223C386.188 32.6223 388.515 30.441 388.515 27.7612C388.515 25.0813 386.188 22.9208 383.301 22.9208C380.434 22.9208 378.086 25.0813 378.086 27.7612C378.086 30.441 380.434 32.6223 383.301 32.6223Z" fill="black"/>
<path d="M394.835 25.7045V59.4002C394.856 66.0064 398.305 68.7693 405.804 68.4369C408.256 68.3123 409.419 67.9591 410.333 67.6683L408.796 60.5012C408.484 60.6259 408.069 60.6882 407.258 60.709C405.7 60.709 405.015 59.9403 404.994 58.2784V25.7045H394.835Z" fill="black"/>
<path d="M428.204 68.8524C436.576 68.8524 442.081 64.8015 443.244 58.5277L433.917 58.2576C433.127 60.3766 431.05 61.5191 428.391 61.5191C424.485 61.5191 422.076 58.9224 422.076 55.0168V54.7468H443.348V52.2123C443.348 41.7006 436.95 35.9254 427.892 35.9254C418.253 35.9254 412.062 42.5316 412.062 52.4201C412.062 62.6409 418.17 68.8524 428.204 68.8524ZM422.076 48.8469C422.221 45.6685 424.735 43.2587 428.1 43.2587C431.445 43.2587 433.854 45.5854 433.896 48.8469H422.076Z" fill="black"/>
<path d="M62.011 91H49.8909H37.7566C37.7566 91 37.7907 83.8025 37.7566 78.8657C21.1548 82.4403 16.5223 69.7657 16.5223 69.7657C13.4881 63.7 10.4566 60.6657 10.4566 60.6657C4.3909 57.0627 10.4566 57.6314 10.4566 57.6314C16.5223 57.6314 19.5566 63.6972 19.5566 63.6972C24.8801 72.7374 34.3527 71.2814 37.7566 69.7629C37.7566 66.7286 39.0846 62.1445 40.7909 60.6629C27.5419 59.1699 16.511 51.5629 16.511 36.3972C16.511 21.2314 19.5566 18.1972 22.5909 15.1629C21.9766 13.6699 19.4372 8.1445 22.6819 0C22.6819 0 28.6424 0 34.7081 9.1C37.714 6.09416 46.8424 6.06572 49.8767 6.06572C52.9053 6.06572 62.0337 6.09416 65.0367 9.1C71.1081 0 77.0828 0 77.0828 0C80.3247 8.1445 77.7909 13.6699 77.1738 15.1657C80.2081 18.2 83.2396 21.2314 83.2396 36.4C83.2396 51.5686 72.2257 59.1756 58.9738 60.6657C60.6829 62.1473 62.0081 67.3656 62.0081 69.7657V91H62.011Z" fill="url(#paint0_linear_92_263)"/>
<defs>
<linearGradient id="paint0_linear_92_263" x1="45.5001" y1="91" x2="45.5001" y2="0" gradientUnits="userSpaceOnUse">
<stop stop-color="#2EC5CE"/>
<stop offset="1" stop-color="#8C30F5"/>
</linearGradient>
</defs>
</svg>
