<svg width="7" height="10" viewBox="0 0 7 10" fill="none" xmlns="http://www.w3.org/2000/svg">
<path d="M1.875 8.75C1.875 8.57639 1.81424 8.42882 1.69271 8.30729C1.57118 8.18576 1.42361 8.125 1.25 8.125C1.07639 8.125 0.928819 8.18576 0.807292 8.30729C0.685764 8.42882 0.625 8.57639 0.625 8.75C0.625 8.92361 0.685764 9.07118 0.807292 9.19271C0.928819 9.31424 1.07639 9.375 1.25 9.375C1.42361 9.375 1.57118 9.31424 1.69271 9.19271C1.81424 9.07118 1.875 8.92361 1.875 8.75ZM1.875 1.25C1.875 1.07639 1.81424 0.928819 1.69271 0.807292C1.57118 0.685764 1.42361 0.625 1.25 0.625C1.07639 0.625 0.928819 0.685764 0.807292 0.807292C0.685764 0.928819 0.625 1.07639 0.625 1.25C0.625 1.42361 0.685764 1.57118 0.807292 1.69271C0.928819 1.81424 1.07639 1.875 1.25 1.875C1.42361 1.875 1.57118 1.81424 1.69271 1.69271C1.81424 1.57118 1.875 1.42361 1.875 1.25ZM6.04167 2.08333C6.04167 1.90972 5.9809 1.76215 5.85938 1.64062C5.73785 1.5191 5.59028 1.45833 5.41667 1.45833C5.24306 1.45833 5.09549 1.5191 4.97396 1.64062C4.85243 1.76215 4.79167 1.90972 4.79167 2.08333C4.79167 2.25694 4.85243 2.40451 4.97396 2.52604C5.09549 2.64757 5.24306 2.70833 5.41667 2.70833C5.59028 2.70833 5.73785 2.64757 5.85938 2.52604C5.9809 2.40451 6.04167 2.25694 6.04167 2.08333ZM6.66667 2.08333C6.66667 2.30903 6.61024 2.51845 6.4974 2.71159C6.38455 2.90473 6.23264 3.05556 6.04167 3.16406C6.03299 4.40972 5.54253 5.30816 4.57031 5.85938C4.27517 6.02431 3.83464 6.20009 3.2487 6.38672C2.69314 6.56033 2.3253 6.71441 2.14518 6.84896C1.96506 6.98351 1.875 7.20052 1.875 7.5V7.66927C2.06597 7.77778 2.21788 7.9286 2.33073 8.12174C2.44358 8.31489 2.5 8.52431 2.5 8.75C2.5 9.09722 2.37847 9.39236 2.13542 9.63542C1.89236 9.87847 1.59722 10 1.25 10C0.902778 10 0.607639 9.87847 0.364583 9.63542C0.121528 9.39236 0 9.09722 0 8.75C0 8.52431 0.0564236 8.31489 0.169271 8.12174C0.282118 7.9286 0.434028 7.77778 0.625 7.66927V2.33073C0.434028 2.22222 0.282118 2.0714 0.169271 1.87826C0.0564236 1.68511 0 1.47569 0 1.25C0 0.902778 0.121528 0.607639 0.364583 0.364583C0.607639 0.121528 0.902778 0 1.25 0C1.59722 0 1.89236 0.121528 2.13542 0.364583C2.37847 0.607639 2.5 0.902778 2.5 1.25C2.5 1.47569 2.44358 1.68511 2.33073 1.87826C2.21788 2.0714 2.06597 2.22222 1.875 2.33073V5.56641C2.10938 5.45356 2.44358 5.32986 2.8776 5.19531C3.11632 5.12153 3.30621 5.05751 3.44727 5.00325C3.58832 4.949 3.74132 4.88173 3.90625 4.80143C4.07118 4.72114 4.19922 4.63542 4.29036 4.54427C4.38151 4.45312 4.4694 4.34245 4.55404 4.21224C4.63867 4.08203 4.69944 3.93121 4.73633 3.75977C4.77322 3.58832 4.79167 3.38976 4.79167 3.16406C4.60069 3.05556 4.44878 2.90473 4.33594 2.71159C4.22309 2.51845 4.16667 2.30903 4.16667 2.08333C4.16667 1.73611 4.28819 1.44097 4.53125 1.19792C4.77431 0.954861 5.06944 0.833333 5.41667 0.833333C5.76389 0.833333 6.05903 0.954861 6.30208 1.19792C6.54514 1.44097 6.66667 1.73611 6.66667 2.08333Z" fill="#F64561"/>
</svg>
