<svg width="11" height="10" viewBox="0 0 11 10" fill="none" xmlns="http://www.w3.org/2000/svg">
<path d="M3.58636 3.21636C3.58636 3.21636 1.60281 3.43606 0.279613 3.58294C0.160349 3.59738 0.0548944 3.6771 0.015349 3.79824C-0.0241964 3.91939 0.0153489 4.04556 0.103228 4.12528C1.08621 5.02227 2.5632 6.36556 2.5632 6.36556C2.56195 6.36556 2.15771 8.3196 1.88905 9.62334C1.86645 9.74135 1.90913 9.86627 2.01208 9.94096C2.11439 10.0157 2.24621 10.0169 2.34978 9.95854C3.50727 9.3007 5.24099 8.31144 5.24099 8.31144C5.24099 8.31144 6.97534 9.3007 8.13095 9.95917C8.2364 10.0169 8.36822 10.0157 8.47053 9.94096C8.57348 9.86627 8.61616 9.74135 8.59294 9.62397C8.32428 8.3196 7.92067 6.36556 7.92067 6.36556C7.92067 6.36556 9.39765 5.02227 10.3806 4.12716C10.4685 4.04493 10.5074 3.91876 10.4685 3.79824C10.4296 3.67772 10.3241 3.59801 10.2049 3.5842C8.88168 3.43606 6.89751 3.21636 6.89751 3.21636C6.89751 3.21636 6.07521 1.39727 5.52723 0.184545C5.47576 0.0759524 5.36779 0 5.24099 0C5.1142 0 5.0056 0.0765801 4.95664 0.184545C4.40803 1.39727 3.58636 3.21636 3.58636 3.21636Z" fill="#FECC08"/>
</svg>
