<svg width="2876" height="751" viewBox="0 0 2876 751" fill="none" xmlns="http://www.w3.org/2000/svg">
<g clip-path="url(#clip0_761_95)">
<g opacity="0.12">
<path fill-rule="evenodd" clip-rule="evenodd" d="M934.373 60.5975C934.158 11.827 848.129 -43.0169 811.381 -71.2921C738.721 -127.217 663.149 -178.86 588.279 -231.329C513.408 -283.797 438.336 -336.124 366.942 -393.727C320.586 -431.119 266.117 -473.233 234.678 -526.626C167.705 -640.41 378.868 -623.513 433.565 -626.002C572.714 -632.36 732.32 -629.458 862.75 -688.711C940.613 -724.084 971.661 -783.408 954.937 -869.869C949.547 -897.988 933.592 -930.345 947.108 -957.739C961.54 -986.995 994.744 -1003.88 1022.3 -1015.2C1122.82 -1056.45 1238.38 -1061.22 1344.73 -1066.4C1459.41 -1072.09 1575.17 -1070.43 1689.04 -1070.87C1737.32 -1071.05 1787.74 -1089.36 1833.72 -1104.24C1894 -1123.73 1953.56 -1145.64 2013.34 -1166.82C2144.85 -1213.3 2280.36 -1262.25 2419.5 -1274.06C2506.63 -1281.45 2601.86 -1271.45 2669.55 -1207.12C2703.54 -1174.82 2721.32 -1126.81 2740.97 -1084.15C2764.75 -1032.62 2787.6 -980.595 2812.92 -929.876C2894.48 -766.525 3010.94 -606.901 3199.96 -598.879C3228.56 -597.67 3256.64 -601.61 3285.1 -602.349C3303.23 -602.804 3319.36 -598.182 3326.1 -578.17C3343.03 -527.977 3289.79 -448.741 3267.96 -408.917C3220.16 -321.744 3166.26 -238.483 3115.77 -153.06C3082.36 -96.5663 3024.54 -19.364 3023.93 49.276C3023.39 110.435 3100.47 154.64 3142.44 184.764C3181.76 212.968 3253 252.437 3257.32 309.812C3259.4 337.632 3242.02 360.688 3223.87 378.58C3192.05 409.871 3155.4 431.945 3126.78 467.645C3079.84 526.215 3040.63 606.802 3047 685.725C3051.42 740.413 3080.99 776.226 3118.6 810.461C3134.4 824.854 3147.23 835.038 3148.07 858.406C3149.42 895.514 3135.64 934.784 3124.3 969.189C3083.71 1092.32 3026.06 1211.38 2961.93 1322.54C2929.89 1378.1 2895.27 1433.48 2852.78 1480.87C2824.95 1511.99 2787.42 1549.03 2744.97 1548.99C2695.83 1548.99 2643.82 1530.27 2596.05 1516.28C2506.83 1490.12 2418.69 1459.88 2330.89 1428.86C2127.86 1357.09 1926.74 1279.51 1727.52 1196.12C1587.2 1137.28 1443.9 1078.35 1311.97 1000.12C1286.25 984.762 1261.96 966.851 1239.45 946.631C1215.39 925.396 1185.55 915.896 1155.28 908.812C967.429 864.849 761.629 898.6 572.997 919.764C525.118 925.126 477.24 930.517 429.226 934.272C387.95 937.5 338.535 946.759 298.418 932.849C219.37 905.47 288.473 804.558 317.688 763.44C420.548 618.664 553.256 496.176 676.261 371.128C734.745 311.576 793.674 252.181 848.978 189.258C877.776 156.546 934.562 103.352 934.373 60.5975Z" stroke="white"/>
<path fill-rule="evenodd" clip-rule="evenodd" d="M969.82 52.3756C938.292 0.769079 882.978 -37.3743 837.062 -73.2715C770.986 -124.949 702.833 -173.755 635.706 -223.968C572.232 -271.452 508.624 -319.476 449.844 -373.4C414.001 -406.283 369.029 -445.606 352.051 -494.242C315.224 -599.658 513.344 -583.665 562.254 -586.423C683.847 -593.247 821.702 -594.81 934.193 -650.312C1004.44 -684.973 1033.29 -742.451 1018.31 -822.249C1013.13 -849.858 1003.8 -873.429 1015.61 -900.896C1029.27 -932.684 1060.69 -952.502 1089.5 -966.491C1179.73 -1010.32 1286.38 -1019.63 1384.18 -1027.38C1485.23 -1035.39 1590.5 -1041.03 1688.29 -1035.17C1727.4 -1032.84 1772.41 -1046.08 1811.11 -1056.23C1870.66 -1071.87 1929.61 -1089.91 1988.86 -1106.68C2109.28 -1140.8 2232.83 -1173.67 2358.1 -1177.41C2448.54 -1180.11 2542.84 -1165.47 2618.09 -1108.87C2694.35 -1051.48 2728.18 -962.511 2770.47 -877.936C2843.5 -731.717 2942.14 -553.937 3111.11 -523.045C3136.73 -518.353 3161.35 -520.898 3186.95 -519.746C3200.11 -519.163 3215.09 -517.315 3221.77 -503.625C3239.09 -468.083 3191.61 -403.098 3175.63 -375.873C3131.48 -300.639 3081.85 -229.086 3035.58 -155.302C2998.83 -96.7147 2952.26 -31.6165 2938.04 37.832C2920.8 122.108 3033.49 182.074 3073.12 241.415C3141.83 344.315 3011.66 402.945 2947.48 452.007C2873.79 508.333 2812.96 611.091 2879.02 698.239C2904.29 731.563 2935.39 751.424 2946.67 794.913C2964.33 862.925 2950.98 940.648 2936.66 1007.88C2915.08 1108.95 2880.94 1208.92 2834.52 1300.26C2801.27 1365.66 2746.1 1468.2 2665.31 1460.51C2610.93 1455.38 2555.64 1436.63 2502.69 1420.05C2423.39 1395.24 2345.1 1366.96 2267.23 1337.59C2087.46 1269.98 1909.67 1195.43 1735.38 1113.42C1616.46 1057.45 1284.73 828.72 1259.77 820.56C1185.35 796.249 1100.73 800.528 1024 804.296C921.935 809.3 820.381 822.266 718.907 834.279C670.604 839.966 622.059 846.918 573.5 849.718C538.938 851.709 493.548 853.415 463.275 832.217C404.184 790.861 470.017 696.235 497.243 656.201C580.647 533.468 686.153 427.184 785.078 318.512C833.623 265.157 882.91 211.887 926.979 154.252C944.752 130.98 989.306 84.2494 969.82 52.3756Z" stroke="white"/>
<path fill-rule="evenodd" clip-rule="evenodd" d="M1013.44 25.9091C927.335 -77.3614 808.497 -154.167 705.933 -240.416C654.456 -283.717 602.654 -328.2 558.255 -379.778C535.159 -406.598 506.319 -440.515 501.87 -477.901C489.978 -577.915 668.545 -564.391 721.991 -568.188C825.324 -575.554 942.059 -581.143 1035.81 -632.181C1093.08 -663.381 1121.29 -714.589 1110.58 -781.896C1105.84 -811.759 1098.45 -837.129 1110.58 -866.452C1122.88 -896.159 1148.5 -917.12 1174.44 -932.834C1248.98 -978.027 1341.62 -992.476 1425.56 -1003.24C1524.01 -1015.78 1623.21 -1020.67 1722.35 -1017.89C1809.18 -1015.48 1895.6 -1042.52 1980.38 -1060.34C2092.69 -1083.93 2207.04 -1104.53 2321.96 -1101.42C2412.73 -1098.95 2504.21 -1079.51 2581.81 -1027.84C2660.65 -975.226 2708.06 -896.472 2750.8 -811.489C2815.41 -683.02 2895.93 -510.864 3037.68 -462.073C3058.29 -454.963 3077.5 -454.181 3098.77 -452.943C3109.1 -452.346 3122.43 -452.161 3127.55 -440.799C3139.88 -413.438 3094.32 -360.395 3081.6 -341.908C3041.02 -282.893 2997.03 -226.536 2955.43 -168.302C2916.6 -113.937 2874.3 -57.2817 2850.18 6.42689C2811.8 107.891 2934.52 167.22 2931.08 263.906C2928.94 323.932 2874.45 366.978 2831.31 396.756C2778.18 433.374 2701.7 457.45 2675.11 524.272C2655.3 574.045 2686.38 603.012 2710.31 640.782C2750.87 704.775 2753.63 791.521 2749.41 865.597C2743.72 965.696 2721.49 1067.27 2683.64 1159.28C2666.49 1200.99 2645.49 1244.38 2614.56 1276.77C2585.58 1307.13 2558.16 1314.91 2519.43 1308.7C2400.89 1289.64 2281.21 1236.53 2167.53 1189.09C2024.71 1129.48 1883.85 1063.66 1747.2 989.615C1654.02 939.118 1558.74 885.691 1476.95 815.924C1455.64 797.736 1433.81 777.969 1418.22 753.979C1406.44 735.947 1401.43 721.058 1381.57 710.762C1322.71 680.259 1240.83 688.237 1177.75 691.408C1076.9 696.456 976.534 709.895 876.303 721.997C817.814 729.107 707.632 751.476 660.927 697.822C620.613 651.491 669.26 572.495 694.109 531.682C756.966 428.468 837.823 337.882 912.841 244.609C947.223 201.861 982.952 158.787 1011.35 111.262C1018.6 99.1456 1030.22 83.0905 1032.22 68.3721C1034.46 51.5064 1024.01 38.6366 1013.44 25.9091Z" stroke="white"/>
<path fill-rule="evenodd" clip-rule="evenodd" d="M1020.84 49.9505C941.278 -41.3596 845.427 -116.374 760.014 -201.821C721.717 -240.133 683.043 -280.323 653.861 -327.059C638.165 -352.192 621.497 -383.829 625.826 -415.068C638.246 -504.727 785.11 -496.629 844.443 -501.88C932.608 -509.594 1033.89 -517.365 1111.85 -565.709C1162.92 -597.375 1182.06 -644.14 1172.53 -704.453C1162.3 -769.15 1185.18 -816.115 1237.26 -852.206C1302.55 -897.42 1384.97 -915.85 1460.78 -928.943C1552.12 -944.642 1644.62 -951.601 1737.14 -949.735C1827.13 -947.914 1914.31 -963.825 2003.7 -974.171C2122.22 -987.876 2244.54 -994.636 2361.72 -966.543C2463.75 -942.079 2555.91 -888.169 2624.99 -804.8C2697.15 -717.788 2732.87 -608.162 2791.46 -511.899C2828 -451.856 2878.96 -372.43 2947.25 -349.09C2970.03 -341.305 3011.53 -351.808 2993.34 -313.511C2982.95 -291.608 2963.49 -272.396 2948.11 -254.492C2923.28 -225.559 2897.61 -197.423 2872.36 -168.889C2818.52 -108.063 2760.88 -45.9422 2720.53 26.084C2669.69 116.768 2745.26 186.56 2736.05 278.51C2731.1 327.993 2698.5 367.486 2664 398.511C2641.68 418.606 2617.26 436.012 2592.33 452.25C2566.29 469.214 2535.48 482.136 2512.77 504.067C2480.4 535.277 2494.46 572.222 2500.52 612.569C2511.2 683.474 2513.55 755.499 2507.51 827.011C2500.12 914.663 2482.79 1004.82 2446.29 1084.48C2432.09 1115.49 2414.1 1148.36 2387.39 1169.15C2360.67 1189.95 2333.04 1188.52 2302.43 1182.26C2211.64 1163.76 2121.03 1120.71 2034.9 1079.91C1927.11 1028.83 1821.42 971.746 1720.5 906.808C1650.84 861.978 1580.95 813.548 1522.67 752.765C1505.72 735.075 1489.59 716.132 1476.55 694.984C1467.59 680.482 1462.79 661.768 1449.82 650.866C1409.23 616.838 1327.74 627 1280.14 628.978C1185.14 632.92 1091.63 651.663 996.755 656.217C944.973 658.708 863.875 664.97 825.848 618.447C790.086 574.713 822.476 505.832 843.85 463.692C885.855 380.836 942.289 307.016 992.871 229.995C1013.67 198.301 1036.45 165.141 1049.93 128.95C1061.9 96.7013 1041.23 73.3615 1020.84 49.9505Z" stroke="white"/>
<path fill-rule="evenodd" clip-rule="evenodd" d="M1040.41 51.4436C977.08 -28.9067 900.736 -100.233 836.95 -181.89C799.613 -229.711 735.315 -310.104 764.19 -377.522C795.868 -451.605 906.287 -453.623 970.114 -459.592C1046.08 -466.697 1135.29 -476.404 1200.3 -522.661C1220.87 -537.285 1238.38 -556.64 1245.81 -582.135C1253.76 -609.421 1245.07 -633.296 1243.93 -660.609C1241.56 -717.909 1273.98 -763.911 1316.88 -795.503C1377.51 -840.168 1453.33 -861.286 1524.95 -876.009C1606.08 -892.615 1688.56 -900.802 1771.21 -900.452C1850.2 -900.168 1928.35 -902.016 2007.41 -904.147C2110.81 -906.989 2215.67 -902.399 2315.97 -873.423C2414.77 -844.858 2504.6 -791.324 2575.17 -712.58C2644.01 -635.74 2690.45 -541.818 2731.13 -446.148C2754.21 -391.847 2793.2 -310.701 2848.26 -283.273C2872.74 -271.066 2896.77 -271.904 2870.73 -240.156C2837.95 -200.18 2793.77 -168.106 2755.8 -133.913C2701.03 -84.572 2644.88 -34.2643 2598.91 24.3996C2569.55 61.8604 2556.47 98.2127 2558.49 146.716C2560.05 183.665 2567.14 220.23 2563.55 257.322C2555.16 344.379 2490.17 404.081 2432.72 459.675C2395.76 495.43 2362.01 522.702 2342.98 573.564C2320.48 633.677 2311.04 699.077 2296 761.493C2279.48 830.034 2260.4 901.331 2224.34 961.701C2192.25 1015.45 2153.21 1039.55 2094.79 1025.07C2003.67 1002.5 1913.85 946.907 1832.95 895.476C1750.61 843.151 1669.69 784.316 1601.45 712.393C1564.62 673.554 1539.47 627.95 1506.76 586.226C1465.61 533.843 1372.52 553.682 1317.19 558.116C1225.35 565.478 936.375 620.56 963.04 442.153C974.17 367.686 1018 298.96 1050.06 233.248C1063.34 205.976 1082.57 173.248 1085.57 141.997C1088.85 107.962 1059.45 75.6311 1040.41 51.4436Z" stroke="white"/>
<path fill-rule="evenodd" clip-rule="evenodd" d="M1073.84 58.2663C1025.45 -14.5472 967.533 -83.3369 926.008 -161.98C899.071 -212.911 872.618 -280.962 907.367 -334.85C946.589 -395.663 1033.07 -409.839 1096.62 -417.588C1162.09 -425.565 1240.25 -432.276 1293.76 -478.387C1310.79 -493.075 1324.82 -512.882 1327.44 -536.598C1329.96 -559.348 1322.84 -582.098 1325.2 -605.26C1330.48 -657.272 1360.37 -700.127 1398.9 -731.209C1512.89 -823.16 1682.55 -843.607 1820.08 -846.01C1888.92 -847.204 1959.76 -840.934 2029.05 -836.441C2118.95 -830.611 2208.99 -818.099 2294.74 -787.941C2477.04 -723.843 2599.23 -581.686 2684.57 -404.792C2711.42 -349.111 2731.98 -288.867 2774.07 -244.121C2795.77 -221.016 2791.03 -204.423 2768.84 -183.351C2734.16 -150.42 2691.85 -125.253 2653.36 -97.7688C2598.61 -58.6818 2542.69 -19.0119 2494.26 27.8101C2460.89 60.0864 2437.2 91.1825 2430 139.583C2424.87 174.091 2426.07 209.254 2422.99 243.976C2417.11 309.936 2397.01 375.399 2361.41 430.112C2333.12 473.479 2299.45 512.893 2264.65 550.473C2219.4 599.399 2181.14 649.107 2146.78 707.176C2101.23 784.042 2037.22 925.83 1929.93 888.307C1811.59 846.902 1700.67 741.699 1624.75 639.765C1599.25 605.541 1578.32 563.568 1543.94 538.33C1492.46 500.608 1440.23 501.93 1379 502.087C1287.33 502.3 1087.85 523.301 1085.7 378.385C1084.85 320.97 1108.39 266.683 1119.66 211.458C1132.38 149.607 1106.9 107.889 1073.84 58.2663Z" stroke="white"/>
<path fill-rule="evenodd" clip-rule="evenodd" d="M1109.89 64.7582C1062.02 -30.1416 954.681 -186.082 1036.32 -291.61C1079.45 -347.379 1155.72 -368.337 1219.71 -380.826C1271.2 -390.928 1333.3 -394.722 1372.21 -437.547C1400.8 -469.034 1388.11 -514.856 1399.07 -554.271C1412.66 -603.135 1443.87 -643.118 1482.23 -673.17C1589.41 -757.157 1738.43 -782.932 1867.36 -788.416C2001.26 -794.1 2148.8 -767.515 2274.8 -716.378C2431.91 -652.596 2549.61 -531.822 2631.93 -378.879C2647.11 -350.647 2660.91 -321.675 2675.49 -293.102C2685.29 -273.934 2699.82 -255.392 2707.54 -235.23C2720.4 -201.612 2705.25 -174.132 2680.97 -152.223C2646.04 -120.679 2603.13 -98.2296 2563.3 -74.558C2508.85 -42.1622 2453.17 -10.3489 2402.52 27.6593C2368.48 53.2349 2332.84 80.7856 2320.66 125.159C2312.35 155.424 2310.62 187.479 2310.92 218.823C2311.56 286.03 2308.22 340.378 2278.49 401.93C2229.57 502.982 2154.35 593.847 2074.88 669.451C2012.51 728.787 1913.82 820.959 1822.95 781.288C1741.42 745.766 1693.73 660.741 1640.01 592C1613.89 558.581 1584.55 528.061 1550.08 504.29C1506.62 474.323 1465.71 461.749 1414.21 456.847C1327.55 448.592 1196.87 446.446 1170.07 336.755C1160.18 296.274 1165.83 254.345 1160.64 213.338C1153.86 159.118 1134.04 112.627 1109.89 64.7582Z" stroke="white"/>
<path fill-rule="evenodd" clip-rule="evenodd" d="M1159.66 68.2723C1125.58 -35.5664 1080.8 -166.432 1163.12 -258.72C1203 -303.428 1259.09 -328.42 1313.38 -347.097C1352.26 -360.482 1414 -364.422 1437.84 -405.574C1455.34 -435.858 1457.77 -477.635 1473.61 -510.081C1495.37 -554.689 1528.34 -591.431 1567.02 -620.193C1667.78 -695.142 1799.02 -724.103 1918.71 -732.396C2178.77 -750.39 2443.38 -607.078 2582.54 -371.293C2624.04 -301.01 2677.6 -226.203 2610.54 -154.398C2537.33 -76.0635 2427.05 -39.3644 2339.67 16.2961C2306.28 37.5474 2263.74 63.0946 2245.11 101.572C2233.91 124.701 2233.14 153.719 2232.63 179.181C2231.28 244.03 2226.18 302.35 2201.46 362.861C2163.3 456.373 2102.44 542.645 2033.47 613.312C1973.32 674.932 1887.55 747.349 1800.2 702.926C1733.22 668.787 1690.75 596.328 1638.71 542.915C1580.8 483.428 1509.17 443.343 1430.52 423.756C1354.01 404.752 1270.1 391.936 1229.78 311.198C1215.94 283.503 1201.49 247.643 1196.31 216.989C1187.94 166.448 1175.68 116.711 1159.66 68.2723Z" stroke="white"/>
<path fill-rule="evenodd" clip-rule="evenodd" d="M1215.16 69.0038C1199.39 -35.8511 1197.64 -145.186 1270.91 -227.827C1305.1 -266.381 1348.33 -293.772 1392.04 -318.588C1424.19 -336.849 1457.4 -352.251 1481.42 -382.187C1503.68 -409.905 1520.59 -442.088 1542.07 -470.531C1570.41 -508.224 1604.32 -540.853 1642.5 -567.166C1738.19 -632.997 1854.6 -663.787 1965.97 -674.467C2019.89 -679.658 2078.37 -682.36 2131.92 -668.209C2183.63 -654.557 2234.77 -632.968 2282.32 -607.796C2383.4 -554.338 2471.01 -476.049 2534.52 -377.067C2578.07 -309.174 2601.61 -243.158 2545.22 -174.283C2481.65 -96.6479 2381.96 -53.8128 2299.8 -3.42611C2243.45 31.1321 2180.29 65.0077 2169.76 138.447C2161.38 196.884 2154.57 252.347 2132.89 307.583C2100.61 389.058 2053.16 462.862 1993.33 524.618C1938.63 580.878 1869.42 628.619 1791.16 598.569C1729.16 574.72 1681.06 521.29 1626.89 483.091C1566.52 440.426 1500.2 416.904 1430.35 397.989C1367.59 380.924 1308.49 354.699 1267.92 299.022C1259.61 287.645 1250.89 275.258 1244.49 262.53C1236.32 246.289 1236.96 230.19 1235.35 211.987C1231.17 163.947 1222.29 116.461 1215.16 69.0038Z" stroke="white"/>
<path fill-rule="evenodd" clip-rule="evenodd" d="M1276.36 60.4337C1277.7 -39.163 1300.4 -133.29 1362.58 -210.908C1389.16 -244.111 1420.9 -271.46 1450.14 -301.886C1473.69 -326.415 1495.95 -349.206 1523.03 -369.419C1587.26 -417.28 1639.46 -479.215 1707.72 -521.834C1798.85 -578.811 1903.23 -610.306 2006.8 -622.898C2057.37 -629.051 2109.62 -631.202 2160.78 -624.251C2204.73 -618.282 2246.81 -597.329 2285.85 -575.891C2362.37 -533.899 2436.67 -474.215 2486.36 -398.705C2595.89 -232.231 2379.93 -111.197 2269.08 -40.3169C2218.1 -7.71148 2140.21 30.0505 2119.33 94.6345C2104.4 140.772 2095.31 187.693 2076.08 232.406C2024.45 352.486 1919.62 493.719 1779.93 474.917C1720.16 466.883 1665.68 434.249 1609.88 412.341C1552.42 389.778 1493.12 377.2 1433.4 363.397C1377.58 350.506 1333.1 332.159 1297.05 282.974C1279.82 259.485 1281.34 231.366 1279.81 202.55C1277.3 155.216 1275.75 107.611 1276.36 60.4337Z" stroke="white"/>
<path fill-rule="evenodd" clip-rule="evenodd" d="M1332.08 47.6766C1354.52 -102.656 1437.87 -266.776 1560.42 -354.081C1704.58 -456.78 1860.76 -543.261 2033 -568.122C2112.86 -579.65 2200.33 -585.322 2275.68 -547.625C2333.03 -518.955 2399.64 -476.098 2431.2 -415.829C2508.41 -268.41 2336.67 -151.056 2238.82 -82.8548C2186.14 -46.1388 2119.09 -10.3611 2079.38 43.2559C2056.35 74.3429 2044.59 115.465 2025.99 149.608C1969.63 253.076 1876.85 336.529 1761.28 351.454C1707.85 358.348 1654.02 349.819 1600.99 343.039C1546.71 336.102 1491.75 332.335 1437.8 322.655C1394.74 314.923 1343.99 301.831 1328.13 253.204C1308.13 191.925 1322.92 109.069 1332.08 47.6766Z" stroke="white"/>
<path fill-rule="evenodd" clip-rule="evenodd" d="M1386.72 23.5269C1419.45 -117.811 1488.76 -255.677 1605.27 -340.053C1667.06 -384.794 1738.78 -415.68 1807.65 -446.195C1885.7 -480.779 1967.26 -507.624 2050.56 -520.94C2154.27 -537.527 2322.24 -552.479 2376.42 -427.786C2430.2 -304.018 2294.3 -194.476 2213.94 -132.051C2162.41 -92.0612 2107.27 -55.3576 2058.04 -11.6404C2031.34 12.0605 2010.78 39.446 1988.19 67.2441C1925.75 144.265 1836.74 205.239 1746.02 237.788C1658.09 269.342 1549.32 283.312 1456.5 272.884C1416.45 268.403 1387.83 253.281 1375.72 210.289C1358.93 150.525 1373.19 81.9114 1386.72 23.5269Z" stroke="white"/>
<path fill-rule="evenodd" clip-rule="evenodd" d="M1441.02 -14.5403C1473.53 -138.983 1543.66 -252.644 1645.96 -327.332C1760.63 -411.059 1908.28 -457.583 2044 -481.242C2116.13 -493.808 2272.46 -527.88 2309.23 -430.369C2346 -332.858 2239.7 -236.763 2178.53 -183.864C2104.27 -119.758 2024.22 -57.8628 1944.26 -0.344978C1874.79 49.6644 1800.66 100.793 1725.41 139.412C1682.97 161.32 1638.76 179.208 1593.3 192.864C1559.64 202.894 1516.84 217.854 1481.55 210.388C1392.55 191.532 1425.46 44.9609 1441.02 -14.5403Z" stroke="white"/>
<path fill-rule="evenodd" clip-rule="evenodd" d="M1508.04 -51.8045C1579.38 -287.14 1805.41 -402.882 2023.04 -443.225C2073.61 -452.59 2215.37 -486.353 2243.64 -414.463C2271.03 -344.762 2183.92 -262.102 2143.13 -222.938C2016.75 -101.583 1860.61 -11.6038 1712.65 77.5369C1666.47 105.361 1583.17 165.74 1525.88 137.888C1463.68 107.592 1493.26 -3.00665 1508.04 -51.8045Z" stroke="white"/>
<path fill-rule="evenodd" clip-rule="evenodd" d="M1581.11 -97.1005C1643.15 -270.408 1823.61 -369.806 1989.51 -402.574C2030.15 -410.591 2133.36 -435.555 2164.13 -387.192C2192.62 -342.454 2124.64 -277.629 2099.21 -251.87C2042.6 -194.508 1975.51 -147.254 1909.23 -101.834C1847.94 -59.8119 1785.99 -16.7376 1721.51 18.8024C1687.54 37.5106 1623.84 77.4292 1585.24 48.5423C1543.69 17.4662 1567.34 -58.6178 1581.11 -97.1005Z" stroke="white"/>
<path fill-rule="evenodd" clip-rule="evenodd" d="M-413.717 193.966C-415.426 82.9365 -471.337 -32.4542 -443.725 -145.586C-421.05 -238.501 -306.899 -246.258 -238.419 -288.354C-184.001 -321.798 -153.118 -381.042 -123.689 -437.885C-97.247 -488.917 -73.4963 -541.483 -45.6413 -591.677C-27.6097 -624.127 3.35374 -687.846 42.4583 -688.996C79.8942 -690.105 114.222 -640.451 135.967 -611.099C164.32 -572.839 189.457 -532.05 216.989 -493.179C263.387 -427.613 319.056 -379.081 382.8 -333.149C455.339 -280.886 529.076 -230.408 604.011 -181.715C659.183 -145.757 714.731 -110.068 767.763 -70.5579C801.027 -45.7664 874.446 0.747939 874.783 46.4524C874.944 68.2605 855.365 92.4127 842.164 109.845C819.826 139.353 794.366 166.333 768.826 192.73C721.257 241.901 671.67 288.841 622.621 336.35C558.959 398.009 498.149 458.66 442.183 528.658C384.32 601.115 329.041 675.958 272.632 749.779C234.429 799.788 196.266 855.949 141.162 886.637C72.1433 924.996 15.4915 884.548 -54.3073 884.079C-114.35 883.667 -109.923 736.822 -117.553 695.991C-125.21 654.662 -142.084 616.189 -148.624 574.761C-156.778 523.047 -156.886 470.139 -158.891 417.871C-161.327 353.938 -162.296 293.075 -227.035 268.695C-263.879 254.843 -303.737 251.931 -341.872 243.634C-366.579 238.249 -413.178 229.043 -413.717 193.966Z" stroke="white"/>
<path fill-rule="evenodd" clip-rule="evenodd" d="M-384.199 174.215C-390.492 81.1453 -427.675 -37.9772 -392.514 -134.049C-362.474 -216.149 -268.527 -226.792 -205.266 -269.919C-153.043 -305.491 -129.796 -363.7 -103.691 -420.885C-82.7479 -466.758 -62.4382 -513.073 -38.665 -557.481C-21.1451 -590.206 5.60658 -645.456 42.0346 -652.229C74.7834 -658.319 109.904 -609.543 128.287 -584.728C155.106 -548.502 178.043 -509.16 201.736 -470.643C243.366 -402.986 285.993 -342.144 346.922 -292.443C408.121 -242.529 475.074 -205.207 542.741 -166.363C595.678 -135.97 648.346 -104.695 698.642 -69.6076C736.107 -43.4837 789.974 -10.0463 807.117 36.5384C820.688 73.3907 751.862 134.546 731.566 156.13C689.787 200.51 645.516 242.171 601.163 283.577C547.094 334.032 491.3 378.155 443.551 435.71C358.148 538.612 286.761 666.755 176.871 743.234C110.591 789.364 36.8325 801.159 -36.8861 794.258C-66.077 791.526 -73.0849 748.029 -76.7641 722.659C-82.8826 680.514 -83.6508 637.643 -88.3543 595.327C-92.7612 555.714 -102.545 518.08 -110.429 479.235C-118.408 439.879 -120.645 399.555 -126.521 359.928C-130.16 335.326 -133.758 306.698 -149.674 286.92C-166.143 266.445 -193.312 257.865 -217.059 251.349C-261.653 239.226 -379.751 239.895 -384.199 174.215Z" stroke="white"/>
<path fill-rule="evenodd" clip-rule="evenodd" d="M-346.207 135.254C-356.792 49.8233 -371.61 -56.582 -328.49 -135.292C-293.244 -199.649 -218.073 -213.533 -164.381 -255.467C-119.723 -290.338 -102.855 -345.8 -80.6882 -397.34C-62.4988 -439.615 -44.215 -482.075 -22.1693 -522.304C-5.44967 -552.813 16.0971 -594.178 49.2938 -604.822C77.6767 -613.916 109.741 -573.176 125.476 -552.898C152.268 -518.339 174.111 -479.617 195.807 -441.406C231.295 -378.881 263.953 -312.094 314.462 -261.236C363.543 -211.884 421.846 -182.753 481.241 -149.999C526.735 -124.904 571.945 -98.8428 614.809 -68.9164C647.723 -45.9528 688.511 -18.7405 705.662 19.4705C720.494 52.4237 682.416 91.4304 663.391 114.678C631.974 153.045 597.105 188.244 562.722 223.584C525.615 261.71 484.517 296.88 448.611 335.944C373.102 418.149 312.777 509.165 219.713 572.144C159.441 612.941 78.3374 650.001 7.09007 643.336C-44.1476 638.533 -40.7767 518.856 -45.6982 480.617C-53.7884 418.092 -69.4159 352.399 -94.2392 294.805C-115.557 245.454 -166.215 230.235 -212.814 219.165C-242.006 212.216 -272.6 208.465 -300.835 197.722C-333.519 185.274 -341.771 171.064 -346.207 135.254Z" stroke="white"/>
<path fill-rule="evenodd" clip-rule="evenodd" d="M-310.77 95.21C-317.072 22.9823 -315.655 -62.4282 -274.832 -124.908C-239.057 -179.634 -175.36 -194.043 -130.058 -237.154C-94.7005 -270.788 -80.8141 -325.629 -61.7996 -370.109C-38.5611 -424.493 -5.99757 -524.939 52.6249 -545.405C107.158 -564.431 164.188 -442.892 183.932 -406.65C215.186 -349.287 241.326 -286.38 279.234 -233.406C311.878 -187.801 355.616 -162.589 402.038 -135.497C461.228 -100.894 551.091 -59.8629 582.737 7.5762C606.326 57.8278 529.621 132.535 503.427 167.352C476.032 203.723 455.398 246.834 427.126 281.922C382.511 337.29 310.218 381.869 250.53 415.888C192.501 448.98 117.145 485.607 51.3159 483.427C8.05075 482.002 -0.18121 411.484 -9.41182 377.038C-22.637 328.069 -40.221 284.188 -77.9936 250.882C-116.441 216.977 -161.757 201 -209.395 187.02C-233.848 179.894 -261.742 174.336 -283.618 159.941C-307.787 144.279 -308.341 122.972 -310.77 95.21Z" stroke="white"/>
<path fill-rule="evenodd" clip-rule="evenodd" d="M-267.592 53.5781C-267.242 -8.82128 -253.723 -75.3617 -213.639 -123.494C-180.252 -163.586 -127.994 -176.988 -96.0339 -217.973C-70.7186 -250.42 -57.8322 -295.972 -40.8836 -333.653C-20.1552 -379.828 9.15517 -460.494 60.7005 -476.519C111.008 -492.119 155.505 -403.271 174.794 -368.114C203.042 -316.564 225.909 -261.922 254.412 -210.513C276.742 -170.18 304.048 -144.185 340.407 -118.19C383.088 -87.6573 442.636 -53.8339 465.436 -3.3188C481.874 33.2558 442.085 91.6984 427.638 123.919C417.953 145.56 409.089 167.542 404.22 190.999C400.426 209.265 400.05 226.169 389.06 241.854C361.391 281.307 300.725 286.455 259.564 299.46C204.898 316.719 146.896 336.332 89.688 340.076C54.5264 342.416 36.5824 308.224 16.5131 284.172C-7.20156 255.738 -40.776 235.288 -70.0998 213.831C-108.799 185.468 -150.915 167.826 -194.484 149.758C-214.136 141.604 -237.219 133.605 -252.445 117.396C-268.345 100.59 -267.713 76.0986 -267.592 53.5781Z" stroke="white"/>
<path fill-rule="evenodd" clip-rule="evenodd" d="M-222.242 16.5344C-215.294 -35.8726 -193.642 -85.9615 -157.071 -123.009C-129.037 -151.453 -91.8066 -167.466 -69.3066 -201.641C-48.3415 -233.498 -33.732 -269.72 -16.416 -303.781C1.90986 -339.791 29.1361 -399.977 71.4028 -409.776C116.955 -420.328 152.045 -359.616 171.475 -325.967C196.021 -283.444 214.67 -237.693 236.618 -193.705C253.153 -160.919 274.244 -130.934 299.19 -104.748C325.353 -77.1441 360.833 -50.7059 374.069 -12.7481C385.77 20.872 363.876 61.5461 360.012 95.6356C355.878 132.057 363.122 170.314 340.205 201.587C292.943 266.083 174.329 254.122 106.52 255.502C39.6119 256.924 -14.1808 217.459 -68.3236 179.914C-104.087 155.125 -141.331 134.134 -177.996 111.038C-215.375 87.4723 -228.355 62.6555 -222.242 16.5344Z" stroke="white"/>
<path fill-rule="evenodd" clip-rule="evenodd" d="M-180.108 -13.4612C-159.561 -89.3839 -95.3887 -129.737 -49.5126 -187.113C-11.9764 -234.084 16.169 -331.357 79.3851 -344.225C151.157 -358.828 194.122 -229.942 219.075 -180.209C246.762 -125.054 296.074 -80.1889 316.58 -21.8021C327.359 8.84307 318.102 37.4386 312.363 68.0695C306.071 101.704 301.342 136.093 279.623 163.165C236.873 216.442 153.38 216.072 93.249 217.538C31.003 219.061 -24.0618 182.551 -73.6565 146.113C-126.256 107.525 -201.153 64.3973 -180.108 -13.4612Z" stroke="white"/>
<path fill-rule="evenodd" clip-rule="evenodd" d="M-145.695 -34.0489C-122.542 -88.1415 -73.8903 -132.117 -34.4122 -173.631C-1.46176 -208.24 33.9858 -277.911 84.2257 -282.878C143.273 -288.735 179.06 -214.339 202.294 -168.721C225.161 -123.897 258.111 -76.5674 270.773 -27.3705C283.977 23.8781 248.815 92.8982 215.281 129.163C177.879 169.601 116.688 184.543 64.1813 182.93C9.20509 181.289 -41.2384 147.868 -82.8743 113.202C-127.387 76.1455 -172.619 28.7455 -145.695 -34.0489Z" stroke="white"/>
<path fill-rule="evenodd" clip-rule="evenodd" d="M-113.762 -44.2329C-91.6472 -89.2235 -53.3125 -127.283 -17.9663 -161.231C9.31081 -187.44 49.5609 -232.006 88.9144 -233.097C132.207 -234.302 168.898 -196.895 186.11 -158.552C203.076 -120.734 220.953 -73.3194 223.493 -31.8299C229.009 58.5198 116.721 159.727 32.404 151.492C-47.5392 143.682 -157.857 45.4082 -113.762 -44.2329Z" stroke="white"/>
<path fill-rule="evenodd" clip-rule="evenodd" d="M-84.2311 -49.1937C-53.722 -107.813 20.385 -191.382 88.993 -193.367C167.744 -195.635 187.513 -102.638 177.248 -35.2442C166.82 33.5394 76.0263 133.1 3.63013 119.646C-67.0281 106.519 -120.388 20.327 -84.2311 -49.1937Z" stroke="white"/>
<path fill-rule="evenodd" clip-rule="evenodd" d="M-53.0504 -58.672C-27.2194 -107.753 27.9019 -169.058 85.3924 -170.913C153.894 -173.109 152.601 -94.5938 137.068 -45.7254C120.915 5.01269 49.7755 91.6725 -10.2052 77.9894C-68.5301 64.632 -77.8045 -11.6309 -53.0504 -58.672Z" stroke="white"/>
<path fill-rule="evenodd" clip-rule="evenodd" d="M-25.8927 -64.3206C-8.8425 -99.342 33.8304 -143.605 74.3973 -145.021C123.982 -146.724 114.343 -84.4493 101.532 -54.3921C86.3041 -18.6267 35.2614 43.5191 -7.57349 33.4476C-49.7469 23.5334 -39.9595 -35.4651 -25.8927 -64.3206Z" stroke="white"/>
</g>
</g>
<defs>
<clipPath id="clip0_761_95">
<rect width="2876" height="751" fill="white"/>
</clipPath>
</defs>
</svg>
